<mxfile host="app.diagrams.net" modified="2021-02-20T11:33:36.104Z" agent="5.0 (Windows NT 10.0; Win64; x64) AppleWebKit/537.36 (KHTML, like Gecko) Chrome/88.0.4324.182 Safari/537.36" etag="wO1ujh-nvo9aMBmSJOph" version="14.4.2" type="github">
  <diagram id="C5RBs43oDa-KdzZeNtuy" name="Page-1">
    <mxGraphModel dx="1248" dy="1846" grid="0" gridSize="10" guides="1" tooltips="1" connect="1" arrows="1" fold="1" page="1" pageScale="1" pageWidth="827" pageHeight="1169" background="none" math="0" shadow="0">
      <root>
        <mxCell id="WIyWlLk6GJQsqaUBKTNV-0" />
        <mxCell id="WIyWlLk6GJQsqaUBKTNV-1" parent="WIyWlLk6GJQsqaUBKTNV-0" />
        <mxCell id="zkfFHV4jXpPFQw0GAbJ--0" value="User" style="swimlane;fontStyle=2;align=center;verticalAlign=top;childLayout=stackLayout;horizontal=1;startSize=26;horizontalStack=0;resizeParent=1;resizeLast=0;collapsible=1;marginBottom=0;rounded=0;shadow=0;strokeWidth=1;fillColor=#FAD9D5;strokeColor=#D0CEE2;fontColor=#1A1A1A;perimeterSpacing=1;" parent="WIyWlLk6GJQsqaUBKTNV-1" vertex="1">
          <mxGeometry x="424.5" y="-1143" width="154" height="188" as="geometry">
            <mxRectangle x="230" y="140" width="160" height="26" as="alternateBounds" />
          </mxGeometry>
        </mxCell>
        <mxCell id="AnfF-M3w__2afX3o7AXB-13" value="&lt;span style=&quot;color: rgb(26 , 26 , 26)&quot;&gt;name : String&lt;br&gt;&lt;/span&gt;&lt;span style=&quot;color: rgb(26 , 26 , 26)&quot;&gt;phoneNumber: Int&lt;br&gt;&lt;/span&gt;EmailAddress: String&lt;br&gt;&lt;div style=&quot;padding: 0px ; margin: 0px&quot;&gt;&lt;span&gt;login: String&lt;/span&gt;&lt;/div&gt;&lt;div style=&quot;padding: 0px ; margin: 0px&quot;&gt;&lt;span&gt;password : String&lt;/span&gt;&lt;/div&gt;&lt;div style=&quot;padding: 0px ; margin: 0px&quot;&gt;&lt;span&gt;connected : Boolean&lt;/span&gt;&lt;/div&gt;&lt;p&gt;&lt;/p&gt;" style="text;html=1;align=left;verticalAlign=middle;resizable=0;points=[];autosize=1;" parent="zkfFHV4jXpPFQw0GAbJ--0" vertex="1">
          <mxGeometry y="26" width="154" height="98" as="geometry" />
        </mxCell>
        <mxCell id="zkfFHV4jXpPFQw0GAbJ--6" value="Session" style="swimlane;fontStyle=0;align=center;verticalAlign=top;childLayout=stackLayout;horizontal=1;startSize=26;horizontalStack=0;resizeParent=1;resizeLast=0;collapsible=1;marginBottom=0;rounded=0;shadow=0;strokeWidth=1;fillColor=#FAD9D5;strokeColor=#D0CEE2;fontColor=#1A1A1A;" parent="WIyWlLk6GJQsqaUBKTNV-1" vertex="1">
          <mxGeometry x="428.5" y="-684" width="151" height="138" as="geometry">
            <mxRectangle x="130" y="380" width="160" height="26" as="alternateBounds" />
          </mxGeometry>
        </mxCell>
        <mxCell id="zkfFHV4jXpPFQw0GAbJ--8" value="chat : String&#xa;date : Date&#xa;audioConversation &#xa;notes : String&#xa;tâches à suivre : String" style="text;align=left;verticalAlign=top;spacingLeft=4;spacingRight=4;overflow=hidden;rotatable=0;points=[[0,0.5],[1,0.5]];portConstraint=eastwest;rounded=0;shadow=0;html=0;fontColor=#1A1A1A;" parent="zkfFHV4jXpPFQw0GAbJ--6" vertex="1">
          <mxGeometry y="26" width="151" height="103" as="geometry" />
        </mxCell>
        <mxCell id="iasEgWI5h-zd5aUJ1qRH-27" style="edgeStyle=orthogonalEdgeStyle;curved=0;rounded=1;sketch=0;orthogonalLoop=1;jettySize=auto;html=1;exitX=1;exitY=0.5;exitDx=0;exitDy=0;dashed=1;strokeColor=#09555B;fontColor=#1A1A1A;entryX=1;entryY=0.5;entryDx=0;entryDy=0;" parent="zkfFHV4jXpPFQw0GAbJ--6" source="zkfFHV4jXpPFQw0GAbJ--8" target="zkfFHV4jXpPFQw0GAbJ--8" edge="1">
          <mxGeometry relative="1" as="geometry">
            <mxPoint x="160" y="84" as="targetPoint" />
          </mxGeometry>
        </mxCell>
        <mxCell id="zkfFHV4jXpPFQw0GAbJ--13" value="Profile" style="swimlane;fontStyle=0;align=center;verticalAlign=top;childLayout=stackLayout;horizontal=1;startSize=26;horizontalStack=0;resizeParent=1;resizeLast=0;collapsible=1;marginBottom=0;rounded=0;shadow=0;strokeWidth=1;fillColor=#FAD9D5;strokeColor=#D0CEE2;fontColor=#1A1A1A;" parent="WIyWlLk6GJQsqaUBKTNV-1" vertex="1">
          <mxGeometry x="663" y="-1143" width="160" height="145" as="geometry">
            <mxRectangle x="340" y="380" width="170" height="26" as="alternateBounds" />
          </mxGeometry>
        </mxCell>
        <mxCell id="zkfFHV4jXpPFQw0GAbJ--14" value="fieldOfProfessionalActivity&#xa;LevelOfExpertise" style="text;align=left;verticalAlign=top;spacingLeft=4;spacingRight=4;overflow=hidden;rotatable=0;points=[[0,0.5],[1,0.5]];portConstraint=eastwest;fontColor=#1A1A1A;" parent="zkfFHV4jXpPFQw0GAbJ--13" vertex="1">
          <mxGeometry y="26" width="160" height="34" as="geometry" />
        </mxCell>
        <mxCell id="zkfFHV4jXpPFQw0GAbJ--17" value="Contract" style="swimlane;fontStyle=0;align=center;verticalAlign=top;childLayout=stackLayout;horizontal=1;startSize=26;horizontalStack=0;resizeParent=1;resizeLast=0;collapsible=1;marginBottom=0;rounded=0;shadow=0;strokeWidth=1;fillColor=#FAD9D5;strokeColor=#D0CEE2;fontColor=#1A1A1A;" parent="WIyWlLk6GJQsqaUBKTNV-1" vertex="1">
          <mxGeometry x="7" y="-1063" width="155" height="108" as="geometry">
            <mxRectangle x="270" y="220" width="160" height="26" as="alternateBounds" />
          </mxGeometry>
        </mxCell>
        <mxCell id="EejjtPwQlQWwgJTkdmp0-24" value="duration&lt;br&gt;frequencyOfTheSessions&lt;br&gt;objectives" style="text;html=1;align=left;verticalAlign=middle;resizable=0;points=[];autosize=1;fontColor=#1A1A1A;" parent="zkfFHV4jXpPFQw0GAbJ--17" vertex="1">
          <mxGeometry y="26" width="155" height="45" as="geometry" />
        </mxCell>
        <mxCell id="6Gsl42CNQXsL94lYynWq-3" value="sessionTimeSlot" style="swimlane;fontStyle=0;align=center;verticalAlign=top;childLayout=stackLayout;horizontal=1;startSize=26;horizontalStack=0;resizeParent=1;resizeLast=0;collapsible=1;marginBottom=0;rounded=0;shadow=0;strokeWidth=1;fillColor=#FAD9D5;strokeColor=#D0CEE2;fontColor=#1A1A1A;" parent="WIyWlLk6GJQsqaUBKTNV-1" vertex="1">
          <mxGeometry x="424" y="-924" width="154.5" height="90" as="geometry">
            <mxRectangle x="340" y="380" width="170" height="26" as="alternateBounds" />
          </mxGeometry>
        </mxCell>
        <mxCell id="6Gsl42CNQXsL94lYynWq-4" value="day : Date&#xa;starting time : Date&#xa;ending time: Date&#xa;available : Boolean&#xa;" style="text;align=left;verticalAlign=top;spacingLeft=4;spacingRight=4;overflow=hidden;rotatable=0;points=[[0,0.5],[1,0.5]];portConstraint=eastwest;fontColor=#1A1A1A;" parent="6Gsl42CNQXsL94lYynWq-3" vertex="1">
          <mxGeometry y="26" width="154.5" height="64" as="geometry" />
        </mxCell>
        <mxCell id="6Gsl42CNQXsL94lYynWq-6" value="appointement" style="swimlane;fontStyle=0;align=center;verticalAlign=top;childLayout=stackLayout;horizontal=1;startSize=26;horizontalStack=0;resizeParent=1;resizeLast=0;collapsible=1;marginBottom=0;rounded=0;shadow=0;strokeWidth=1;fillColor=#FAD9D5;strokeColor=#D0CEE2;fontColor=#1A1A1A;" parent="WIyWlLk6GJQsqaUBKTNV-1" vertex="1">
          <mxGeometry x="424.5" y="-805" width="155" height="88" as="geometry">
            <mxRectangle x="340" y="380" width="170" height="26" as="alternateBounds" />
          </mxGeometry>
        </mxCell>
        <mxCell id="6Gsl42CNQXsL94lYynWq-7" value="user1: String&#xa;user2: String&#xa;date : Date&#xa;" style="text;align=left;verticalAlign=top;spacingLeft=4;spacingRight=4;overflow=hidden;rotatable=0;points=[[0,0.5],[1,0.5]];portConstraint=eastwest;fontColor=#1A1A1A;" parent="6Gsl42CNQXsL94lYynWq-6" vertex="1">
          <mxGeometry y="26" width="155" height="62" as="geometry" />
        </mxCell>
        <mxCell id="EejjtPwQlQWwgJTkdmp0-0" value="Mentor" style="swimlane;fontStyle=2;align=center;verticalAlign=top;childLayout=stackLayout;horizontal=1;startSize=26;horizontalStack=0;resizeParent=1;resizeLast=0;collapsible=1;marginBottom=0;rounded=0;shadow=0;strokeWidth=1;fillColor=#FAD9D5;strokeColor=#D0CEE2;fontColor=#1A1A1A;" parent="WIyWlLk6GJQsqaUBKTNV-1" vertex="1">
          <mxGeometry x="189.5" y="-1015" width="141" height="122" as="geometry">
            <mxRectangle x="230" y="140" width="160" height="26" as="alternateBounds" />
          </mxGeometry>
        </mxCell>
        <mxCell id="EejjtPwQlQWwgJTkdmp0-6" value="Mentee" style="swimlane;fontStyle=2;align=center;verticalAlign=top;childLayout=stackLayout;horizontal=1;startSize=26;horizontalStack=0;resizeParent=1;resizeLast=0;collapsible=1;marginBottom=0;rounded=0;shadow=0;strokeWidth=1;fillColor=#FAD9D5;strokeColor=#D0CEE2;fontColor=#1A1A1A;" parent="WIyWlLk6GJQsqaUBKTNV-1" vertex="1">
          <mxGeometry x="189.5" y="-1157" width="141" height="124" as="geometry">
            <mxRectangle x="230" y="140" width="160" height="26" as="alternateBounds" />
          </mxGeometry>
        </mxCell>
        <mxCell id="EejjtPwQlQWwgJTkdmp0-25" value="Historique" style="swimlane;fontStyle=0;align=center;verticalAlign=top;childLayout=stackLayout;horizontal=1;startSize=26;horizontalStack=0;resizeParent=1;resizeLast=0;collapsible=1;marginBottom=0;rounded=0;shadow=0;strokeWidth=1;fillColor=#FAD9D5;strokeColor=#D0CEE2;fontColor=#1A1A1A;" parent="WIyWlLk6GJQsqaUBKTNV-1" vertex="1">
          <mxGeometry x="663" y="-684" width="160" height="138" as="geometry">
            <mxRectangle x="130" y="380" width="160" height="26" as="alternateBounds" />
          </mxGeometry>
        </mxCell>
        <mxCell id="EejjtPwQlQWwgJTkdmp0-27" value="audioConversation&#xa;notes: String&#xa;tâches à suivre: String" style="text;align=left;verticalAlign=top;spacingLeft=4;spacingRight=4;overflow=hidden;rotatable=0;points=[[0,0.5],[1,0.5]];portConstraint=eastwest;rounded=0;shadow=0;html=0;fontColor=#1A1A1A;" parent="EejjtPwQlQWwgJTkdmp0-25" vertex="1">
          <mxGeometry y="26" width="160" height="68" as="geometry" />
        </mxCell>
        <mxCell id="AnfF-M3w__2afX3o7AXB-26" value="" style="endArrow=none;html=1;rounded=0;strokeColor=#000000;" parent="WIyWlLk6GJQsqaUBKTNV-1" edge="1">
          <mxGeometry relative="1" as="geometry">
            <mxPoint x="578.5" y="-1061" as="sourcePoint" />
            <mxPoint x="664" y="-1061" as="targetPoint" />
          </mxGeometry>
        </mxCell>
        <mxCell id="AnfF-M3w__2afX3o7AXB-27" value="1" style="resizable=0;html=1;align=right;verticalAlign=bottom;" parent="AnfF-M3w__2afX3o7AXB-26" connectable="0" vertex="1">
          <mxGeometry x="1" relative="1" as="geometry">
            <mxPoint x="-6.5" y="21" as="offset" />
          </mxGeometry>
        </mxCell>
        <mxCell id="AnfF-M3w__2afX3o7AXB-28" value="*" style="text;html=1;align=center;verticalAlign=middle;resizable=0;points=[];autosize=1;" parent="WIyWlLk6GJQsqaUBKTNV-1" vertex="1">
          <mxGeometry x="584.5" y="-1058" width="15" height="18" as="geometry" />
        </mxCell>
        <mxCell id="AnfF-M3w__2afX3o7AXB-29" value="" style="endArrow=none;html=1;rounded=0;strokeColor=#000000;entryX=-0.006;entryY=0.146;entryDx=0;entryDy=0;entryPerimeter=0;" parent="WIyWlLk6GJQsqaUBKTNV-1" edge="1">
          <mxGeometry relative="1" as="geometry">
            <mxPoint x="331.42" y="-1088" as="sourcePoint" />
            <mxPoint x="424.49600000000004" y="-1087.62" as="targetPoint" />
          </mxGeometry>
        </mxCell>
        <mxCell id="AnfF-M3w__2afX3o7AXB-30" value="*" style="resizable=0;html=1;align=right;verticalAlign=bottom;" parent="AnfF-M3w__2afX3o7AXB-29" connectable="0" vertex="1">
          <mxGeometry x="1" relative="1" as="geometry">
            <mxPoint x="-6" y="20.62" as="offset" />
          </mxGeometry>
        </mxCell>
        <mxCell id="AnfF-M3w__2afX3o7AXB-31" value="*" style="text;html=1;align=center;verticalAlign=middle;resizable=0;points=[];autosize=1;" parent="WIyWlLk6GJQsqaUBKTNV-1" vertex="1">
          <mxGeometry x="330.5" y="-1086" width="15" height="18" as="geometry" />
        </mxCell>
        <mxCell id="AnfF-M3w__2afX3o7AXB-33" value="" style="endArrow=none;html=1;rounded=0;strokeColor=#000000;" parent="WIyWlLk6GJQsqaUBKTNV-1" edge="1">
          <mxGeometry relative="1" as="geometry">
            <mxPoint x="331.41999999999996" y="-969" as="sourcePoint" />
            <mxPoint x="424.5" y="-969" as="targetPoint" />
          </mxGeometry>
        </mxCell>
        <mxCell id="AnfF-M3w__2afX3o7AXB-34" value="*" style="resizable=0;html=1;align=right;verticalAlign=bottom;" parent="AnfF-M3w__2afX3o7AXB-33" connectable="0" vertex="1">
          <mxGeometry x="1" relative="1" as="geometry">
            <mxPoint x="-7.92" y="24" as="offset" />
          </mxGeometry>
        </mxCell>
        <mxCell id="AnfF-M3w__2afX3o7AXB-35" value="*" style="text;html=1;align=center;verticalAlign=middle;resizable=0;points=[];autosize=1;" parent="WIyWlLk6GJQsqaUBKTNV-1" vertex="1">
          <mxGeometry x="330.5" y="-963" width="15" height="18" as="geometry" />
        </mxCell>
        <mxCell id="BDFnZYUjpFA3TImfayYs-0" value="" style="endArrow=none;html=1;rounded=0;strokeColor=#000000;" edge="1" parent="WIyWlLk6GJQsqaUBKTNV-1">
          <mxGeometry relative="1" as="geometry">
            <mxPoint x="579.5" y="-610" as="sourcePoint" />
            <mxPoint x="665" y="-610" as="targetPoint" />
          </mxGeometry>
        </mxCell>
        <mxCell id="BDFnZYUjpFA3TImfayYs-1" value="1" style="resizable=0;html=1;align=right;verticalAlign=bottom;" connectable="0" vertex="1" parent="BDFnZYUjpFA3TImfayYs-0">
          <mxGeometry x="1" relative="1" as="geometry">
            <mxPoint x="-68.5" y="18" as="offset" />
          </mxGeometry>
        </mxCell>
        <mxCell id="BDFnZYUjpFA3TImfayYs-2" value="1" style="resizable=0;html=1;align=right;verticalAlign=bottom;" connectable="0" vertex="1" parent="WIyWlLk6GJQsqaUBKTNV-1">
          <mxGeometry x="661" y="-609" as="geometry">
            <mxPoint x="-5" y="18" as="offset" />
          </mxGeometry>
        </mxCell>
        <mxCell id="BDFnZYUjpFA3TImfayYs-3" value="" style="endArrow=none;html=1;rounded=0;strokeColor=#000000;" edge="1" parent="WIyWlLk6GJQsqaUBKTNV-1">
          <mxGeometry relative="1" as="geometry">
            <mxPoint x="105.5" y="-1064.19" as="sourcePoint" />
            <mxPoint x="189" y="-1115" as="targetPoint" />
          </mxGeometry>
        </mxCell>
        <mxCell id="BDFnZYUjpFA3TImfayYs-5" value="" style="endArrow=none;html=1;rounded=0;strokeColor=#000000;" edge="1" parent="WIyWlLk6GJQsqaUBKTNV-1">
          <mxGeometry relative="1" as="geometry">
            <mxPoint x="101" y="-955" as="sourcePoint" />
            <mxPoint x="190" y="-924" as="targetPoint" />
          </mxGeometry>
        </mxCell>
        <mxCell id="BDFnZYUjpFA3TImfayYs-7" value="1" style="resizable=0;html=1;align=right;verticalAlign=bottom;" connectable="0" vertex="1" parent="WIyWlLk6GJQsqaUBKTNV-1">
          <mxGeometry x="180" y="-1098" as="geometry">
            <mxPoint x="4" y="7" as="offset" />
          </mxGeometry>
        </mxCell>
        <mxCell id="BDFnZYUjpFA3TImfayYs-8" value="1" style="resizable=0;html=1;align=right;verticalAlign=bottom;" connectable="0" vertex="1" parent="WIyWlLk6GJQsqaUBKTNV-1">
          <mxGeometry x="676" y="-1020" as="geometry">
            <mxPoint x="-540" y="-43" as="offset" />
          </mxGeometry>
        </mxCell>
        <mxCell id="BDFnZYUjpFA3TImfayYs-9" value="1" style="resizable=0;html=1;align=right;verticalAlign=bottom;" connectable="0" vertex="1" parent="WIyWlLk6GJQsqaUBKTNV-1">
          <mxGeometry x="688" y="-1026" as="geometry">
            <mxPoint x="-509" y="116" as="offset" />
          </mxGeometry>
        </mxCell>
        <mxCell id="BDFnZYUjpFA3TImfayYs-10" value="1" style="resizable=0;html=1;align=right;verticalAlign=bottom;" connectable="0" vertex="1" parent="WIyWlLk6GJQsqaUBKTNV-1">
          <mxGeometry x="116" y="-931" as="geometry" />
        </mxCell>
      </root>
    </mxGraphModel>
  </diagram>
</mxfile>
